<svg width="23" height="23" viewBox="0 0 23 23" fill="none" xmlns="http://www.w3.org/2000/svg">
<g opacity="0.72">
<path fill-rule="evenodd" clip-rule="evenodd" d="M11.4998 21.0832C16.7926 21.0832 21.0832 16.7926 21.0832 11.4998C21.0832 6.20711 16.7926 1.9165 11.4998 1.9165C6.20711 1.9165 1.9165 6.20711 1.9165 11.4998C1.9165 16.7926 6.20711 21.0832 11.4998 21.0832ZM7.94719 15.0525C7.57294 14.6782 7.57294 14.0714 7.94719 13.6972L10.1446 11.4998L7.94728 9.30251C7.57303 8.92826 7.57303 8.32147 7.94728 7.94722C8.32154 7.57297 8.92832 7.57297 9.30257 7.94722L11.4999 10.1445L13.6972 7.94719C14.0714 7.57294 14.6782 7.57294 15.0525 7.94719C15.4267 8.32145 15.4267 8.92823 15.0525 9.30248L12.8552 11.4998L15.0526 13.6972C15.4268 14.0715 15.4268 14.6783 15.0526 15.0525C14.6783 15.4268 14.0715 15.4268 13.6973 15.0525L11.4999 12.8551L9.30248 15.0525C8.92823 15.4267 8.32145 15.4267 7.94719 15.0525Z" fill="#212121"/>
</g>
</svg>
