<svg width="22" height="23" viewBox="0 0 22 23" fill="none" xmlns="http://www.w3.org/2000/svg">
<g opacity="0.72">
<path fill-rule="evenodd" clip-rule="evenodd" d="M16.5294 15.7328C17.6584 14.3214 18.3335 12.5312 18.3335 10.5833C18.3335 6.0269 14.6398 2.33325 10.0835 2.33325C5.52715 2.33325 1.8335 6.0269 1.8335 10.5833C1.8335 15.1396 5.52715 18.8333 10.0835 18.8333C12.0314 18.8333 13.8217 18.1582 15.233 17.0292L17.6853 19.4814C18.0433 19.8394 18.6237 19.8394 18.9817 19.4814C19.3397 19.1235 19.3397 18.5431 18.9817 18.1851L16.5294 15.7328ZM16.5002 10.5833C16.5002 14.1271 13.6273 16.9999 10.0835 16.9999C6.53967 16.9999 3.66683 14.1271 3.66683 10.5833C3.66683 7.03942 6.53967 4.16659 10.0835 4.16659C13.6273 4.16659 16.5002 7.03942 16.5002 10.5833Z" fill="#212121"/>
</g>
</svg>
